<?xml version="1.0" encoding="UTF-8"?>
<svg version="1.1" xmlns="http://www.w3.org/2000/svg" width="512" height="512">
<path d="M0 0 C2.69514568 -0.0057084 5.39026652 -0.01257503 8.08540344 -0.02079773 C14.62291725 -0.03791695 21.16033466 -0.03884004 27.69786505 -0.03358483 C33.01684003 -0.02952866 38.33578671 -0.03100378 43.65476036 -0.03633308 C44.79418851 -0.03745572 44.79418851 -0.03745572 45.95663541 -0.03860103 C47.50025578 -0.04013265 49.04387613 -0.041671 50.58749648 -0.043216 C65.03505391 -0.05691641 79.48255705 -0.05152091 93.93011322 -0.04003078 C107.11671222 -0.03010315 120.30317081 -0.04303532 133.48974816 -0.06696498 C147.0639605 -0.09141047 160.63810759 -0.10095036 174.21234149 -0.09431225 C181.81951302 -0.09083183 189.42657669 -0.0929737 197.03373146 -0.11056328 C203.51010022 -0.12535376 209.98628516 -0.12583217 216.46265057 -0.10849237 C219.75996446 -0.10003535 223.05688692 -0.09990746 226.35419464 -0.11314392 C248.1898512 -0.19406391 268.615593 1.12238508 285.31713867 17.05639648 C295.69448445 28.52107445 302.64531462 41.99264206 302.53979492 57.66967773 C302.5376725 58.85977448 302.5376725 58.85977448 302.5355072 60.07391357 C302.52992282 62.60066545 302.51737321 65.12732777 302.50463867 67.65405273 C302.49962165 69.37019729 302.4950591 71.08634323 302.4909668 72.80249023 C302.47995851 77.00304542 302.46270463 81.20353391 302.44213867 85.40405273 C303.32782028 85.39961151 304.21350189 85.39517029 305.12602234 85.39059448 C313.52487918 85.350308 321.92370297 85.3199626 330.3226347 85.30042839 C334.63928581 85.29004766 338.95585624 85.27599451 343.27246094 85.25317383 C347.44813122 85.23123958 351.62372451 85.21944132 355.79944801 85.21429825 C357.38242617 85.21063905 358.96540073 85.20349512 360.54834557 85.19259262 C382.6371553 85.04668362 400.30208796 88.69916551 416.75463867 104.34155273 C426.92313663 115.04960365 432.59316049 128.2656172 432.58930969 143.05505371 C432.59298638 143.81786132 432.59666307 144.58066894 432.60045117 145.36659193 C432.61145069 147.91879929 432.61532554 150.47096588 432.61914062 153.02319336 C432.62540823 154.85503263 432.6320553 156.68687065 432.63905334 158.51870728 C432.66006566 164.53256347 432.67045501 170.54641984 432.68041992 176.56030273 C432.68446892 178.63435377 432.68858589 180.70840468 432.69277 182.78245544 C432.71181766 192.53053177 432.72604802 202.27860056 432.73438197 212.02669191 C432.74414472 223.25916151 432.77044093 234.49143354 432.81088287 245.72383356 C432.8411053 254.41791016 432.85585676 263.11193033 432.85916299 271.80605841 C432.861507 276.99264646 432.87038246 282.17902336 432.89562416 287.36555481 C432.91901645 292.25102164 432.9230935 297.13613995 432.91286278 302.02164841 C432.91236997 303.80614257 432.91861451 305.59065453 432.93241882 307.37509537 C433.06681934 325.79225981 428.92431008 341.33210049 415.92260742 355.05249023 C404.71555037 365.67713329 391.2976867 372.72546844 375.66088867 372.59936523 C374.38149414 372.59437012 373.10209961 372.589375 371.78393555 372.58422852 C370.18614258 372.56602051 368.58834961 372.5478125 366.94213867 372.52905273 C361.82713867 372.48780273 356.71213867 372.44655273 351.44213867 372.40405273 C351.44213867 390.22405273 351.44213867 408.04405273 351.44213867 426.40405273 C343.50355438 422.43476059 335.85529823 418.42308434 328.25463867 413.90405273 C319.87323428 408.96576296 311.44443949 404.13111054 302.94213867 399.40405273 C293.38975297 394.08916329 283.91879754 388.64857488 274.49487305 383.10913086 C273.5699707 382.56579102 272.64506836 382.02245117 271.69213867 381.46264648 C270.89291992 380.99141357 270.09370117 380.52018066 269.27026367 380.03466797 C268.33698242 379.49656494 267.40370117 378.95846191 266.44213867 378.40405273 C265.83945003 377.99748003 265.23676138 377.59090733 264.61580944 377.17201424 C258.22869047 373.13085731 252.97829194 372.7050722 245.53515625 372.80810547 C244.37614807 372.80404694 243.21713989 372.7999884 242.02301025 372.79580688 C239.51859844 372.79030746 237.01414049 372.79624762 234.50977516 372.81246758 C230.53541769 372.83797543 226.56168642 372.83369943 222.58732605 372.8205719 C214.85872374 372.79997539 207.13041068 372.81545013 199.40182495 372.83604431 C189.58327392 372.86123296 179.76488885 372.87383258 169.94633216 372.84608799 C165.37920582 372.83465644 160.81284366 372.8549502 156.24580383 372.88145447 C135.29271913 372.9077213 118.66343216 370.03780164 102.82885742 355.04467773 C92.6982558 343.83635253 86.2747772 330.05621445 86.34448242 314.79077148 C86.34770508 313.54360352 86.35092773 312.29643555 86.35424805 311.01147461 C86.36262695 309.71790039 86.37100586 308.42432617 86.37963867 307.09155273 C86.38415039 305.77864258 86.38866211 304.46573242 86.39331055 303.11303711 C86.40507918 299.87666263 86.42152108 296.64038096 86.44213867 293.40405273 C72.33172876 301.17200419 58.28635115 309.01974293 44.39892578 317.18164062 C33.1771813 323.76209173 21.81405006 330.08779526 10.44213867 336.40405273 C7.47213867 338.05405273 4.50213867 339.70405273 1.44213867 341.40405273 C1.44213867 323.58405273 1.44213867 305.76405273 1.44213867 287.40405273 C-7.51652687 287.5216592 -7.51652687 287.5216592 -16.47460938 287.67431641 C-34.31319454 287.79103972 -49.46238681 282.76830786 -62.55786133 270.40405273 C-73.00417505 259.52168599 -79.88431691 245.56710534 -79.83201599 230.36778259 C-79.83725267 229.59973929 -79.84248935 228.83169598 -79.84788471 228.04037863 C-79.86278572 225.48829091 -79.86358768 222.93640543 -79.86425781 220.38427734 C-79.87188614 218.54538641 -79.8803148 216.70649866 -79.88948059 214.86761475 C-79.91137023 209.88582901 -79.92021743 204.90410465 -79.92530704 199.92227626 C-79.92895818 196.80374796 -79.93520227 193.68523555 -79.94230843 190.56671333 C-79.96678695 179.66946843 -79.97985067 168.77227099 -79.98339844 157.875 C-79.98702899 147.74689547 -80.01689413 137.61909484 -80.05880302 127.49108309 C-80.09360136 118.77312696 -80.10894855 110.05527105 -80.10964447 101.337246 C-80.11043425 96.14054033 -80.11903415 90.94414428 -80.14764214 85.74751091 C-80.17398567 80.8528973 -80.17593788 75.9588464 -80.1599865 71.06419373 C-80.15818469 69.27892381 -80.1647465 67.49362031 -80.18080521 65.70842171 C-80.31681638 49.59136419 -77.35562411 36.68057173 -67.55786133 23.40405273 C-67.09766602 22.76081055 -66.6374707 22.11756836 -66.16333008 21.45483398 C-57.28964056 10.07503042 -42.87903113 3.02444042 -28.84925294 0.68224597 C-19.3303624 -0.47342334 -9.56942718 -0.01829985 0 0 Z M-44.09301758 44.24780273 C-50.87620575 53.89851943 -49.84884518 66.34622151 -49.81665039 77.62475586 C-49.81936577 79.23412738 -49.82292975 80.84349765 -49.82727051 82.4528656 C-49.83633177 86.79375487 -49.83287629 91.13454829 -49.82651234 95.47543907 C-49.82141972 100.03599668 -49.82615281 104.59654653 -49.82928467 109.15710449 C-49.83291485 116.8131659 -49.82815015 124.46918862 -49.81860352 132.12524414 C-49.8077208 140.95428903 -49.81124705 149.78324153 -49.82225633 158.61228418 C-49.83135627 166.21686925 -49.83260127 173.82142662 -49.82737899 181.42601538 C-49.82427414 185.95732988 -49.82380885 190.48860107 -49.83045197 195.01991272 C-49.83626431 199.28160451 -49.83215796 203.54317812 -49.82066345 207.80485725 C-49.81803755 209.36119962 -49.81874619 210.91755207 -49.82318878 212.4738903 C-49.8589542 226.28535274 -49.57266572 237.48991444 -40.12036133 248.15405273 C-33.84841467 253.66112785 -28.07197444 256.6685599 -19.64428711 256.63110352 C-18.50355743 256.63095245 -17.36282776 256.63080139 -16.18753052 256.63064575 C-14.97169281 256.62032318 -13.7558551 256.61000061 -12.50317383 256.59936523 C-10.61814651 256.59512039 -10.61814651 256.59512039 -8.69503784 256.59078979 C-5.37085269 256.58151396 -2.04694708 256.56357655 1.27716064 256.54138184 C4.67587844 256.52084086 8.07462609 256.51166056 11.47338867 256.50170898 C18.12979504 256.48139028 24.78571498 256.4422349 31.44213867 256.40405273 C31.44213867 266.63405273 31.44213867 276.86405273 31.44213867 287.40405273 C35.75055591 285.96791366 38.6527974 284.8769918 42.39916992 282.63842773 C43.34985352 282.07639648 44.30053711 281.51436523 45.2800293 280.93530273 C46.26165039 280.34749023 47.24327148 279.75967773 48.25463867 279.15405273 C51.22933825 277.38063354 54.20651548 275.62526943 57.22285461 273.92324829 C60.38541001 272.09713208 63.34157282 270.07702064 66.32084656 267.96664429 C84.41097573 255.79552768 100.22370114 255.47605011 121.393116 255.91433477 C125.8382767 255.9899188 130.28331608 255.9805939 134.72900391 255.98025513 C143.11555502 255.99130227 151.49989449 256.06963924 159.88571835 256.17657101 C174.93273911 256.36572569 189.98072986 256.42814438 205.02876186 256.48005497 C210.29624857 256.50079384 215.56262117 256.54813932 220.82966805 256.6188457 C224.1012084 256.65983828 227.37275187 256.6849363 230.64447021 256.70677757 C232.15337335 256.72054878 233.66223243 256.74131947 235.17092896 256.76983452 C243.39050837 256.92226814 250.2097141 256.69043656 257.44213867 252.40405273 C258.49401367 251.84717773 259.54588867 251.29030273 260.62963867 250.71655273 C267.29022237 245.24007281 271.2473528 237.57737034 272.24123573 229.06389809 C272.70686841 222.89917534 272.58970069 216.70308473 272.58740234 210.52392578 C272.59039795 208.91499758 272.59380141 207.3060701 272.59757996 205.69714355 C272.60638306 201.34370789 272.60875651 196.99029191 272.60939574 192.63684821 C272.61010832 189.91233922 272.61224657 187.18783517 272.61489296 184.46332741 C272.62413405 174.94527496 272.62822938 165.42723648 272.62744141 155.90917969 C272.62684089 147.05805001 272.6373908 138.20698133 272.65318507 129.35586709 C272.66628986 121.73860886 272.67162407 114.1213705 272.670986 106.5041011 C272.67073188 101.96267506 272.67353517 97.42130327 272.68416405 92.87988853 C272.69389467 88.60593457 272.69389041 84.33208619 272.68664742 80.05812836 C272.68560773 78.4969473 272.68792749 76.93575949 272.69400787 75.37458992 C272.81956764 56.43112239 272.81956764 56.43112239 263.68823242 40.49780273 C255.64290899 32.82630241 246.85785726 30.80118796 235.98071289 30.89611816 C234.86849806 30.8898782 233.75628323 30.88363824 232.61036491 30.87720919 C228.90563253 30.86133022 225.20156274 30.87386413 221.49682617 30.88647461 C218.8317881 30.88105123 216.16679477 30.87407138 213.50177002 30.86523438 C207.02798935 30.84749631 200.55439474 30.85126798 194.08060694 30.86288494 C188.81680436 30.87193763 183.55305374 30.87313534 178.28924561 30.86878967 C177.16326141 30.86787027 177.16326141 30.86787027 176.01453006 30.8669323 C174.4893387 30.86565333 172.96414735 30.86435648 171.43895602 30.86304194 C157.15466966 30.85164995 142.87048617 30.8647281 128.58621669 30.8862434 C116.34347773 30.90411315 104.10089052 30.90100865 91.8581543 30.88256836 C77.62317217 30.86113718 63.38828008 30.85274846 49.15328407 30.86501741 C47.63386664 30.86629154 46.1144492 30.86754903 44.59503174 30.86878967 C43.47381025 30.86971533 43.47381025 30.86971533 42.32993782 30.87065968 C37.07562901 30.87410585 31.82137756 30.8683001 26.56707764 30.85887146 C20.15925813 30.84762506 13.75163448 30.85074671 7.34383726 30.87199444 C4.07767127 30.88246968 0.8118967 30.88451549 -2.45427704 30.87339783 C-6.00198637 30.86243678 -9.548784 30.87621444 -13.09643555 30.89611816 C-14.11882387 30.88719528 -15.1412122 30.87827239 -16.19458199 30.86907911 C-27.87840325 30.99586894 -36.64115531 35.29798342 -44.09301758 44.24780273 Z M302.44213867 116.40405273 C302.44067211 117.02082477 302.43920555 117.6375968 302.43769455 118.27305889 C302.40052176 133.33251204 302.34136954 148.39170837 302.25823593 163.45096874 C302.21855298 170.73375468 302.1861063 178.01643425 302.17114258 185.29931641 C302.15806994 191.65262739 302.13096386 198.00570327 302.08752561 204.35888177 C302.06503514 207.71794966 302.05131501 211.07647595 302.05025482 214.43565941 C302.04787272 218.20046073 302.02069072 221.96435946 301.98803711 225.72900391 C301.99558266 227.37008118 301.99558266 227.37008118 302.00328064 229.04431152 C301.79450633 244.71643915 295.45109009 258.94015412 284.71948242 270.31030273 C273.71171378 280.43065263 259.6775616 286.46298661 244.67141724 286.56227112 C242.98042152 286.57695435 242.98042152 286.57695435 241.25526428 286.5919342 C240.03318771 286.59768967 238.81111115 286.60344513 237.55200195 286.609375 C235.60485039 286.6242244 235.60485039 286.6242244 233.61836243 286.63937378 C230.07132961 286.66631644 226.52428364 286.68738331 222.97720575 286.70737576 C219.26561261 286.72930126 215.55405954 286.75665772 211.84249878 286.78343201 C204.81973425 286.8332704 197.79694737 286.87824193 190.77413929 286.92145437 C182.77654425 286.97090259 174.77898943 287.02579251 166.78143334 287.08113396 C150.3350389 287.19481803 133.88860753 287.30168642 117.44213867 287.40405273 C117.34232789 291.65407239 117.27023355 295.90344869 117.22241211 300.15429688 C117.20245116 301.59647525 117.17527204 303.03857433 117.14038086 304.48046875 C116.94275113 312.86520074 116.9876604 319.99293166 121.44213867 327.40405273 C121.99901367 328.45592773 122.55588867 329.50780273 123.12963867 330.59155273 C127.38956475 335.77254391 133.12924774 339.21621053 139.44213867 341.40405273 C141.99170973 341.66705902 141.99170973 341.66705902 144.67640686 341.57485962 C145.71141327 341.56290054 146.74641968 341.55094147 147.81278992 341.53862 C148.93836807 341.51564346 150.06394623 341.49266693 151.22363281 341.46899414 C153.70027701 341.4365342 156.17692627 341.40445819 158.65357971 341.37271118 C159.96739687 341.3525658 161.28121403 341.33242043 162.63484383 341.31166458 C166.77206433 341.25114504 170.90915308 341.22137034 175.04673767 341.1993103 C175.74838596 341.19549115 176.45003425 341.19167199 177.17294461 341.18773711 C179.33494029 341.17624433 181.49693775 341.16514048 183.65893555 341.15405273 C192.55510746 341.10766228 201.44932202 341.04063404 210.34423828 340.87963867 C216.84449366 340.76220604 223.34248032 340.70448875 229.84382719 340.71094453 C233.26976906 340.71219085 236.69000018 340.68695585 240.11464119 340.58830643 C261.2570391 340.05890273 274.45724154 345.05466775 291.62670898 356.53931808 C295.26762062 358.95079158 299.01966542 361.11689841 302.82885742 363.24780273 C306.04714134 365.11375336 309.26393632 366.98220379 312.47924805 368.85327148 C313.52274414 369.4578418 314.56624023 370.06241211 315.64135742 370.68530273 C316.54716553 371.21188477 317.45297363 371.7384668 318.38623047 372.28100586 C320.19796436 373.48395146 320.19796436 373.48395146 321.44213867 373.40405273 C321.44213867 362.84405273 321.44213867 352.28405273 321.44213867 341.40405273 C325.48979492 341.47366211 329.53745117 341.54327148 333.70776367 341.61499023 C336.96753848 341.65366879 340.22724706 341.68617209 343.48712158 341.71455383 C346.910759 341.74603237 350.33348208 341.78797551 353.7565918 341.85668945 C357.69853061 341.93530863 361.64011692 341.96364258 365.58276367 341.98999023 C366.78950745 342.02095795 367.99625122 342.05192566 369.23956299 342.08383179 C378.4920428 342.0874456 386.34134789 339.84751229 393.44390869 333.6602478 C400.97411848 325.77587551 402.56120135 315.85895002 402.57585144 305.32756042 C402.578117 304.65076542 402.58038255 303.97397041 402.58271676 303.27666646 C402.58900471 301.02768826 402.58823077 298.77877113 402.58740234 296.52978516 C402.59039709 294.90952986 402.59380035 293.28927527 402.59757996 291.66902161 C402.60639207 287.28047106 402.6087569 282.89194003 402.60939574 278.50338149 C402.61010783 275.75794699 402.61224516 273.0125174 402.61489296 270.26708412 C402.62413717 260.67886669 402.62822901 251.09066314 402.62744141 241.50244141 C402.62684087 232.58144432 402.63739036 223.66050775 402.65318507 214.73952597 C402.66628393 207.06625307 402.67162432 199.39299989 402.670986 191.71971589 C402.6707317 187.14309548 402.67354517 182.56652888 402.68416405 177.98991966 C402.69388457 173.68315127 402.69389723 169.37648771 402.68664742 165.0697155 C402.68560647 163.4952148 402.68793511 161.92070744 402.69400787 160.34621811 C402.8956442 141.95554097 402.8956442 141.95554097 394.42651367 126.23608398 C386.08130351 118.44438266 378.54129511 116.27054544 367.15161133 116.29052734 C366.44847809 116.29038132 365.74534485 116.29023529 365.02090454 116.29008484 C362.71597112 116.2907769 360.41112033 116.29853593 358.10620117 116.30639648 C356.50051925 116.30826318 354.89483675 116.30968589 353.28915405 116.3106842 C349.07731535 116.31448959 344.86551152 116.32430286 340.65368652 116.33538818 C336.35010245 116.34564497 332.04651271 116.35019095 327.74291992 116.35522461 C319.30931023 116.365927 310.8757288 116.38297951 302.44213867 116.40405273 Z " fill="#000000" transform="translate(79.557861328125,42.595947265625)"/>
<path d="M0 0 C26.07 0 52.14 0 79 0 C79 10.23 79 20.46 79 31 C63.16 31 47.32 31 31 31 C31 39.25 31 47.5 31 56 C34.16464844 55.98839844 37.32929687 55.97679687 40.58984375 55.96484375 C43.64119364 55.95705406 46.69254244 55.9509768 49.74389648 55.94506836 C51.87118014 55.94002702 53.99846031 55.93319409 56.12573242 55.92456055 C59.17627826 55.91248621 62.22677845 55.90676986 65.27734375 55.90234375 C66.71327126 55.89460182 66.71327126 55.89460182 68.1782074 55.88670349 C69.05904495 55.88662796 69.93988251 55.88655243 70.84741211 55.88647461 C71.62684677 55.884254 72.40628143 55.88203339 73.20933533 55.87974548 C75 56 75 56 76 57 C76.10003289 59.13353174 76.13081048 61.27037542 76.1328125 63.40625 C76.13410156 64.70691406 76.13539063 66.00757813 76.13671875 67.34765625 C76.13462402 68.02844238 76.1325293 68.70922852 76.13037109 69.41064453 C76.1250224 71.49128515 76.1303168 73.57170989 76.13671875 75.65234375 C76.13542969 76.95300781 76.13414062 78.25367188 76.1328125 79.59375 C76.13168457 80.79708984 76.13055664 82.00042969 76.12939453 83.24023438 C76 86 76 86 75 87 C73.61839885 87.0927833 72.23211962 87.11747043 70.84741211 87.11352539 C69.96657455 87.11344986 69.085737 87.11337433 68.1782074 87.11329651 C67.22092239 87.10813522 66.26363739 87.10297394 65.27734375 87.09765625 C64.30213272 87.0962413 63.32692169 87.09482635 62.32215881 87.09336853 C59.19390857 87.08775133 56.06572877 87.07519593 52.9375 87.0625 C50.82226666 87.05748722 48.70703219 87.05292393 46.59179688 87.04882812 C41.39448199 87.03862531 36.19732025 87.01905331 31 87 C31 95.58 31 104.16 31 113 C46.84 113 62.68 113 79 113 C79 123.23 79 133.46 79 144 C52.93 144 26.86 144 0 144 C0 96.48 0 48.96 0 0 Z " fill="#000000" transform="translate(87,115)"/>
<path d="M0 0 C1.94921875 1.74609375 1.94921875 1.74609375 3 3 C1.62574465 7.10095248 -0.22143913 9.62568115 -3.1875 12.75 C-7.41378919 17.30454466 -11.2698312 22.03443767 -15 27 C-19.40256015 26.08841108 -23.21297719 24.08586349 -27.24609375 22.15625 C-33.68383888 19.4533102 -41.27173112 18.67584433 -47.875 21.25 C-51.73776869 23.39727303 -51.73776869 23.39727303 -54 27 C-54.25063732 30.66714849 -54.25063732 30.66714849 -54 34 C-52.81148437 34.37511719 -51.62296875 34.75023437 -50.3984375 35.13671875 C-44.33578441 37.16036928 -38.43789608 39.58062005 -32.53515625 42.02368164 C-30.6381225 42.80708093 -28.73721281 43.58047772 -26.8359375 44.35351562 C-10.96419889 50.86804195 2.63189408 57.63480028 10.18359375 73.8125 C14.14372296 84.42337254 13.79089037 95.27377602 9.21875 105.59375 C2.21256026 119.42648358 -7.80045462 126.56380168 -22.234375 131.8125 C-38.2551603 136.28341683 -57.60567278 132.53803063 -72 125 C-78.71911926 120.81706206 -84.16992618 116.26604172 -89 110 C-81.7029631 103.29224272 -74.38196846 96.6143744 -67 90 C-64.04346785 91.38546013 -61.51466804 93.02349716 -58.875 94.9375 C-50.65937707 100.41904939 -41.82471096 102.2820708 -32 101 C-29.064121 99.92691764 -26.70754739 98.60447253 -24 97 C-23.34 97 -22.68 97 -22 97 C-20.34679219 94.02422594 -19.24992521 91.41564448 -19 88 C-21.15668182 82.24884848 -26.68344344 79.51711856 -32.03344727 77.06982422 C-34.11381193 76.23646986 -36.20657737 75.45389215 -38.3125 74.6875 C-39.89132254 74.08907667 -41.46942396 73.48874807 -43.046875 72.88671875 C-43.85705078 72.57911621 -44.66722656 72.27151367 -45.50195312 71.95458984 C-76.07957979 60.26982437 -76.07957979 60.26982437 -83.8125 43.25 C-87.41843206 33.38113332 -87.10680331 22.66402524 -83 13 C-81.51549253 10.18438417 -79.84538826 7.59052926 -78 5 C-77.13375 3.700625 -77.13375 3.700625 -76.25 2.375 C-55.550076 -19.47491978 -23.296264 -13.71859803 0 0 Z " fill="#000000" transform="translate(282,126)"/>
</svg>
