<?xml version="1.0" encoding="utf-8"?>
<!-- Svg Vector Icons : http://www.onlinewebfonts.com/icon -->
<!DOCTYPE svg PUBLIC "-//W3C//DTD SVG 1.1//EN" "http://www.w3.org/Graphics/SVG/1.1/DTD/svg11.dtd">
<svg version="1.1" xmlns="http://www.w3.org/2000/svg" xmlns:xlink="http://www.w3.org/1999/xlink" x="0px" y="0px" viewBox="0 0 256 256" enable-background="new 0 0 256 256" xml:space="preserve">
<metadata> Svg Vector Icons : http://www.onlinewebfonts.com/icon </metadata>
<g><g><path fill="#41A9AB" d="M222.7,87.1h-20.4c-1,0-1.9,0.3-2.7,0.7l-9.2-27.8c-3-15.8-14.1-23.4-27.7-23.4H76c-15.7,0-25.2,10.2-27.7,23.4L39,87.9c-0.8-0.5-1.8-0.8-2.8-0.8H15.7c-3.1,0-5.7,2.6-5.7,5.7v5c0,3.1,2.6,5.7,5.7,5.7l7.7,1.3c-2.4,4.8-3.8,10.3-3.8,16.6l-2.9,32.8c0,0.9,0,1.9,0.2,2.9c-0.1,0.6-0.2,1.2-0.2,1.9v39.4c0,5.6,4.6,10.2,10.2,10.2h15.5c5.6,0,10.2-4.6,10.2-10.2v-12.7h83.1c-3,0-30.8-81.1,79.4-81c2.3,0,7.6-1.3,7.6-1.3c3.1,0,5.7-2.6,5.7-5.7v-5C228.4,89.7,225.9,87.1,222.7,87.1L222.7,87.1L222.7,87.1z M55.1,81.3l6.8-18l0.1-0.4c0.7-3.6,2.2-4.3,4.4-7.1h106.1c2.3,2.9,3.6,3.6,4.2,7.1l6.9,18.5l2.5,10c-0.6,7.3-9.4,13.1-16.8,13.1h-100c-7.3,0-16.2-5.8-16.8-13.1L55.1,81.3L55.1,81.3L55.1,81.3z M59.8,167c-8.5,0-15.4-6.9-15.4-15.4c0-8.5,6.9-15.4,15.4-15.4c8.5,0,15.4,6.9,15.4,15.4C75.2,160.1,68.3,167,59.8,167L59.8,167L59.8,167z M128.5,155.7L128.5,155.7c0,2.5-1.4,4.6-3.1,4.6H96.5c-1.7,0-3.1-2-3.1-4.6v-12.9c0-2.5,1.4-4.6,3.1-4.6h28.9c1.7,0,3.1,2,3.1,4.6V155.7L128.5,155.7L128.5,155.7z"/><path fill="#F45A59" d="M182.5,92.3c-35.1,0-63.5,28.4-63.5,63.5c0,35.1,28.4,63.5,63.5,63.5c35.1,0,63.5-28.4,63.5-63.5C246,120.7,217.6,92.3,182.5,92.3L182.5,92.3z M190.4,195.1l-14.6,0l-0.1-32l-32.1,0.1l0-14.6l32.1-0.1l-0.1-32.1l14.6,0l0.1,32.1l32.1-0.1l0,14.6l-32.1,0.1L190.4,195.1L190.4,195.1z"/></g></g>
</svg>