<svg viewBox="0 0 100 100" xmlns="http://www.w3.org/2000/svg">
  <!-- Circular background -->
  <circle cx="50" cy="50" r="45" fill="#4F46E5" stroke="#3730A3" stroke-width="2"/>
  
  <!-- Document/permit icon -->
  <rect x="30" y="25" width="25" height="30" rx="2" fill="white" opacity="0.9"/>
  
  <!-- Lines representing text on document -->
  <line x1="33" y1="30" x2="50" y2="30" stroke="#4F46E5" stroke-width="1.5"/>
  <line x1="33" y1="34" x2="52" y2="34" stroke="#4F46E5" stroke-width="1.5"/>
  <line x1="33" y1="38" x2="48" y2="38" stroke="#4F46E5" stroke-width="1.5"/>
  
  <!-- Checkmark/approval symbol -->
  <circle cx="44" cy="47" r="6" fill="#10B981"/>
  <path d="M41 47 L43 49 L47 45" stroke="white" stroke-width="2" fill="none" stroke-linecap="round" stroke-linejoin="round"/>
  
  <!-- Click/cursor icon -->
  <path d="M58 35 L58 50 L62 46 L66 50 L70 46 L66 42 L70 38 Z" fill="white" opacity="0.95"/>
  
  <!-- Shopping cart element -->
  <rect x="62" y="60" width="12" height="8" rx="1" fill="white" opacity="0.9"/>
  <circle cx="65" cy="71" r="2" fill="white"/>
  <circle cx="71" cy="71" r="2" fill="white"/>
  <path d="M58 58 L62 60 L62 68" stroke="white" stroke-width="2" fill="none"/>
</svg>