<?xml version="1.0" encoding="utf-8"?>
<!-- Svg Vector Icons : http://www.onlinewebfonts.com/icon -->
<!DOCTYPE svg PUBLIC "-//W3C//DTD SVG 1.1//EN" "http://www.w3.org/Graphics/SVG/1.1/DTD/svg11.dtd">
<svg version="1.1" xmlns="http://www.w3.org/2000/svg" xmlns:xlink="http://www.w3.org/1999/xlink" x="0px" y="0px" viewBox="0 0 256 256" enable-background="new 0 0 256 256" xml:space="preserve">
<metadata> Svg Vector Icons : http://www.onlinewebfonts.com/icon </metadata>
<g>
  <g>
  <path id='tick'
  d="M79.6,105.6l-16.5,16.5l53.1,53.1l118-118l-16.5-16.5L116.2,142.2L79.6,105.6z M222.4,128c0,51.9-42.5,94.4-94.4,94.4S33.6,179.9,33.6,128S76.1,33.6,128,33.6c9.4,0,17.7,1.2,26,3.5l18.9-18.9C158.7,13.5,143.3,10,128,10C63.1,10,10,63.1,10,128s53.1,118,118,118s118-53.1,118-118H222.4z"
  
  fill="none"
  stroke="#2f9744"
  stroke-width="4"
  stroke-linecap="round"
  stroke-linejoin="round"/>
  </g>
</g>

<style>
    #tick {
      stroke-dasharray: 1250;
      stroke-dashoffset: 1250;
      animation: draw 3s ease-out forwards;
    }

    @keyframes draw {
      to {
        stroke-dashoffset: 0;
      }
    }
  </style>

</svg>