<?xml version="1.0" encoding="utf-8"?>
<!-- Svg Vector Icons : http://www.onlinewebfonts.com/icon -->
<!DOCTYPE svg PUBLIC "-//W3C//DTD SVG 1.1//EN" "http://www.w3.org/Graphics/SVG/1.1/DTD/svg11.dtd">
<svg version="1.1" xmlns="http://www.w3.org/2000/svg" xmlns:xlink="http://www.w3.org/1999/xlink" x="0px" y="0px" viewBox="0 0 256 256" enable-background="new 0 0 256 256" xml:space="preserve">
<metadata> Svg Vector Icons : http://www.onlinewebfonts.com/icon </metadata>
<g><g><g><path fill="#41A9AB" d="M10,47.1v9.2h8.5h8.5l0.1,80.8l0.1,80.8h9.7h9.7l0.1-80.8l0.1-80.8h80.4h80.4v80.9v80.9l9.9-0.1l9.8-0.1l0.1-80.8l0.1-80.8h9.2h9.2l-0.1-9.1l-0.1-9.1L127.9,38L10,37.9V47.1z"/><path fill="#41A9AB" d="M55.8,68.5v4.7H128h72.2v-4.7v-4.7H128H55.8V68.5z"/><path fill="#41A9AB" d="M55.8,85.2v4.5H128h72.2v-4.5v-4.5H128H55.8V85.2z"/><path fill="#41A9AB" d="M55.8,102.1v4.5H128h72.2v-4.5v-4.5H128H55.8V102.1z"/><path fill="#F45A59" d="M99.4,124.1c-0.7,0.6-5.8,8.1-11.4,16.5l-10.1,15.4l-3.2,0.8c-3.9,0.9-5.4,1.8-7.3,4.3L66,163l-0.1,18.6l-0.1,18.6h7.5h7.4l0.2,6.1c0.1,5.9,0.2,6.2,1.6,8c3.7,4.8,11.7,4.4,14.9-0.7c0.9-1.5,1.1-2.6,1.3-7.6l0.1-5.8h29.3h29.3v5.3c0,4.4,0.2,5.7,1,7.5c2.8,5.7,11.3,6.4,15.3,1.2c1.2-1.6,1.3-2.1,1.5-7.9l0.2-6.1h7.4h7.4v-17.9c0-16.8-0.1-18.1-1-19.9c-1.7-3.3-3.6-4.6-9.5-5.9c-1.6-0.4-2.4-1.5-11.8-15.8c-5.6-8.5-10.7-15.9-11.4-16.5l-1.2-1.1H128h-27.3L99.4,124.1z M158.9,143.7c4.2,6.5,7.8,11.9,7.9,12.2c0.1,0.2-16.1,0.4-38.7,0.4c-23.5,0-38.8-0.2-38.7-0.4c0.1-0.2,3.6-5.7,7.9-12.2l7.7-11.7H128h23.2L158.9,143.7z M94.5,164.9c4.4,2.1,6.8,7.1,5.6,11.5c-0.8,3.1-4.5,6.6-7.9,7.4c-8.3,2-15.8-5.9-12.7-13.3C81.8,164.8,88.9,162.2,94.5,164.9z M170.7,164.6c2.4,1,4.5,3,5.6,5.4c3.5,7.5-3.7,15.5-12.3,13.7c-3.5-0.7-7.2-4.1-8.1-7.4c-1.1-4.4,1.4-9.6,5.7-11.5C164,163.6,168.2,163.6,170.7,164.6z"/></g></g></g>
</svg>