<svg version="1.1" id="Layer_1" xmlns="http://www.w3.org/2000/svg" xmlns:xlink="http://www.w3.org/1999/xlink" x="0px" y="0px"
	 width="100%" viewBox="0 0 281 283" enable-background="new 0 0 281 283" xml:space="preserve">
<path fill="#FFFFFF" opacity="0.000000" stroke="none" 
	d="
M282.000000,2.000000 
	C282.000000,12.020894 282.000000,22.041788 281.531342,32.531605 
	C272.435211,33.000526 263.807739,33.000526 255.180252,33.000526 
	C255.183624,33.333683 255.187012,33.666843 255.190384,34.000000 
	C264.126923,34.000000 273.063446,34.000000 282.000000,34.000000 
	C282.000000,51.687561 282.000000,69.375122 281.531342,87.531693 
	C272.434967,88.000702 263.807281,88.000702 255.179565,88.000702 
	C255.183029,88.333801 255.186478,88.666901 255.189941,89.000000 
	C264.126617,89.000000 273.063324,89.000000 282.000000,89.000000 
	C282.000000,106.687561 282.000000,124.375122 281.531342,142.530975 
	C272.041626,142.999451 263.020569,142.999649 253.750031,142.999908 
	C253.500549,142.999969 253.001343,143.000122 253.000244,142.531464 
	C252.998611,126.430389 253.029099,110.797829 252.953705,95.165794 
	C252.945374,93.439606 252.331528,91.716347 251.891830,89.774742 
	C251.588089,89.287010 251.329758,89.101669 250.715225,88.704002 
	C234.945251,88.270279 219.470184,88.134293 203.777267,87.890495 
	C203.287704,87.584122 203.101776,87.324188 203.000427,86.534058 
	C202.998703,71.077072 202.978653,56.088890 203.005585,41.100792 
	C203.019913,33.124203 202.262192,34.029999 210.348618,34.007370 
	C222.505569,33.973351 234.662979,34.038010 246.819458,33.954323 
	C248.548309,33.942421 250.273056,33.332802 252.297668,32.706795 
	C252.595627,23.017288 252.595627,13.620800 252.595627,4.224312 
	C252.397293,4.224959 252.198944,4.225606 252.000610,4.226254 
	C252.000610,13.817604 252.000610,23.408955 251.531921,33.000671 
	C235.042145,32.994450 219.021072,32.987854 203.000336,32.737770 
	C203.000671,32.494278 203.001556,32.007290 203.000107,31.537868 
	C203.000244,21.370960 203.001831,11.673471 203.002441,1.731987 
	C203.001465,1.487992 203.000000,1.000000 203.000000,1.000000 
	C228.687561,1.000000 254.375122,1.000000 280.638245,1.220142 
	C281.413361,1.714583 281.675446,1.901155 282.000000,2.000000 
M252.997330,47.522858 
	C252.997330,43.755032 252.997330,39.987206 252.997330,36.219379 
	C252.778046,36.232609 252.558762,36.245834 252.339478,36.259060 
	C252.339478,53.088749 252.339478,69.918442 252.339478,86.748131 
	C252.558792,86.747429 252.778122,86.746735 252.997437,86.746040 
	C252.997437,74.002533 252.997437,61.259026 252.997330,47.522858 
z"/>
<path fill="#FFFFFF" opacity="0.000000" stroke="none" 
	d="
M202.000000,284.000000 
	C169.312439,284.000000 136.624878,284.000000 103.467537,283.531342 
	C102.997490,275.924255 103.083214,268.784271 102.951088,261.648285 
	C102.903763,259.092133 102.330391,256.545746 101.998550,253.997437 
	C102.000000,254.000000 102.003365,254.003372 102.005127,253.746063 
	C102.005821,253.317276 102.004745,253.145767 102.001953,252.732361 
	C102.000237,252.490479 101.998169,252.006714 102.248932,252.006897 
	C102.666870,252.006302 102.834045,252.005539 103.107895,252.222443 
	C103.411751,252.711807 103.670525,252.897873 104.285263,253.296387 
	C105.222923,253.727310 105.866112,253.975998 106.509476,253.976456 
	C136.784637,253.997925 167.059830,254.009537 197.334915,253.957794 
	C198.561035,253.955704 199.786118,253.332001 201.339874,252.998871 
	C202.105301,252.998871 202.542526,252.997894 202.984085,253.254501 
	C202.991043,253.683792 202.993698,253.855499 202.997879,254.267960 
	C202.999420,254.508728 203.002014,254.990250 202.704498,255.285156 
	C202.271332,265.053375 202.135666,274.526703 202.000000,284.000000 
z"/>
<path fill="#FFFFFF" opacity="0.000000" stroke="none" 
	d="
M102.000000,284.000000 
	C69.312439,284.000000 36.624878,284.000000 3.468688,283.531342 
	C3.000232,273.378082 3.000404,263.693481 3.469160,254.005569 
	C36.626286,254.002625 69.314827,254.003006 102.003365,254.003372 
	C102.003365,254.003372 102.000000,254.000000 102.000122,254.466705 
	C102.000168,264.622284 102.000084,274.311127 102.000000,284.000000 
z"/>
<path fill="#FFFFFF" opacity="0.000000" stroke="none" 
	d="
M282.000000,254.000000 
	C282.000000,263.925232 282.000000,273.850494 282.000000,284.000000 
	C272.646973,284.000000 263.292145,284.000000 253.467957,283.531342 
	C252.998306,275.924164 253.084106,268.784027 252.951874,261.647949 
	C252.904495,259.091888 252.330612,256.545563 251.998520,253.997406 
	C252.000000,254.000000 252.003418,254.003433 252.005249,253.746765 
	C252.006119,253.318970 252.005188,253.147873 252.002411,252.734131 
	C252.000549,252.491470 251.998779,252.006149 252.296204,251.711655 
	C252.728271,249.606262 252.975937,247.795609 252.979752,245.984436 
	C253.012100,230.655121 252.999985,215.325714 253.108826,199.778244 
	C253.414810,199.288040 253.674789,199.101959 254.465240,199.000519 
	C263.956085,198.999435 272.978027,198.999725 282.000000,199.000000 
	C282.000000,216.687561 282.000000,234.375122 281.531342,252.531342 
	C272.434692,253.000000 263.806702,253.000000 255.178711,253.000000 
	C255.182098,253.333328 255.185471,253.666672 255.188843,254.000000 
	C264.125885,254.000000 273.062958,254.000000 282.000000,254.000000 
z"/>
<path fill="#FFFFFF" opacity="0.000000" stroke="none" 
	d="
M203.001556,32.007290 
	C203.001556,32.007290 203.000671,32.494278 202.531708,32.743767 
	C185.708908,32.994946 169.355057,32.996632 153.000244,32.529770 
	C152.999527,21.707479 152.999771,11.353740 153.000000,1.000000 
	C169.354233,1.000000 185.708450,1.000000 202.531342,1.000000 
	C203.000000,1.000000 203.001465,1.487992 202.706299,2.030345 
	C202.274918,10.004247 202.049194,17.435858 202.054367,24.867310 
	C202.056015,27.247522 202.668518,29.627310 203.001556,32.007290 
z"/>
<path fill="#FFFFFF" opacity="0.000000" stroke="none" 
	d="
M53.000000,1.000000 
	C69.020897,1.000000 85.041786,1.000000 101.637871,1.258736 
	C102.475700,2.010202 102.738350,2.502932 102.703674,3.289935 
	C102.270905,13.389472 102.135452,23.194736 101.531342,33.000305 
	C85.041893,32.999458 69.021095,32.998302 52.999744,32.528664 
	C52.999454,21.706789 52.999729,11.353395 53.000000,1.000000 
z"/>
<path fill="#FFFFFF" opacity="0.000000" stroke="none" 
	d="
M282.000000,144.000000 
	C282.000000,161.687561 282.000000,179.375122 281.531342,197.532074 
	C272.040558,198.000290 263.018463,197.999115 253.778259,197.890747 
	C253.288101,197.585312 253.101746,197.325562 252.999969,196.535217 
	C253.008438,178.709915 253.018036,161.353745 253.270569,143.998779 
	C253.513535,143.999985 253.999451,144.000153 254.468140,144.000458 
	C263.957886,144.000504 272.978943,144.000259 282.000000,144.000000 
z"/>
<path fill="#FFFFFF" opacity="0.000000" stroke="none" 
	d="
M103.000992,2.995661 
	C102.738350,2.502932 102.475700,2.010202 102.106529,1.258736 
	C118.020897,1.000000 134.041794,1.000000 150.530487,1.468657 
	C150.998383,12.290933 150.998459,22.644550 150.530029,32.999016 
	C134.707535,32.999878 119.353569,32.999889 103.750038,32.999954 
	C103.500473,33.000008 103.001144,33.000198 103.000000,32.531528 
	C102.999565,22.373793 103.000275,12.684727 103.000992,2.995661 
z"/>
<path fill="#FFFFFF" opacity="0.000000" stroke="none" 
	d="
M3.000000,1.000000 
	C18.687561,1.000000 34.375122,1.000000 50.530380,1.468657 
	C50.998665,12.290831 50.999256,22.644346 50.531204,32.998962 
	C34.375145,32.999302 18.687723,32.998539 3.000236,32.998886 
	C3.000169,33.000000 3.003513,32.996357 3.001838,32.528076 
	C3.000108,21.706530 3.000054,11.353265 3.000000,1.000000 
z"/>
<path fill="#FFFFFF" opacity="0.000000" stroke="none" 
	d="
M203.002014,254.990250 
	C203.002014,254.990250 202.999420,254.508728 203.466888,254.257614 
	C219.957367,254.005478 235.980392,254.004456 252.003418,254.003433 
	C252.003418,254.003433 252.000000,254.000000 252.000092,254.466660 
	C252.000107,264.622223 252.000046,274.311096 252.000000,284.000000 
	C235.979111,284.000000 219.958206,284.000000 203.467896,283.531342 
	C202.999649,273.705200 203.000824,264.347717 203.002014,254.990250 
z"/>
<path fill="#F3F6F7" opacity="1.000000" stroke="none" 
	d="
M1.000000,240.000000 
	C1.000000,208.312439 1.000000,176.624878 1.333899,144.468597 
	C2.112674,144.000534 2.557549,144.001175 3.000499,144.470306 
	C2.998116,160.762421 3.137765,176.588165 2.904034,192.408371 
	C2.841350,196.651199 3.761246,198.321213 8.371221,198.107986 
	C16.681684,197.723648 25.023251,197.949081 33.350407,198.044006 
	C34.919777,198.061890 36.482559,198.658096 37.574707,198.992401 
	C27.315931,198.998596 17.527401,199.149002 7.747488,198.924332 
	C4.070635,198.839859 2.849124,199.905319 2.916904,203.676910 
	C3.134412,215.779999 2.997619,227.889435 2.664443,239.998016 
	C1.887575,239.999756 1.443788,239.999878 1.000000,240.000000 
z"/>
<path fill="#F9F9F9" opacity="1.000000" stroke="none" 
	d="
M1.000000,143.000000 
	C1.000000,106.645775 1.000000,70.291542 1.333896,33.468590 
	C2.113033,32.998699 2.558273,32.997528 3.003513,32.996357 
	C3.003513,32.996357 3.000169,33.000000 2.999732,33.250710 
	C2.999627,33.669285 2.999958,33.837147 3.000178,34.473152 
	C3.000176,52.625305 3.000285,70.309319 2.999676,88.246674 
	C2.999416,88.668846 2.999873,88.837685 3.000232,89.474777 
	C3.001506,107.626854 3.002878,125.310677 2.670050,142.996979 
	C1.890567,142.999619 1.445284,142.999817 1.000000,143.000000 
z"/>
<path fill="#F5F9F9" opacity="1.000000" stroke="none" 
	d="
M50.999847,32.997864 
	C50.999256,22.644346 50.998665,12.290831 50.999039,1.468657 
	C51.444447,1.000000 51.888889,1.000000 52.666668,1.000000 
	C52.999729,11.353395 52.999454,21.706789 52.999100,32.779472 
	C52.999039,33.665939 52.999062,33.833122 52.665794,34.002079 
	C51.888081,34.007080 51.443657,34.010307 50.999290,34.008522 
	C50.999340,34.003506 50.999847,34.000458 51.000191,33.749809 
	C51.000305,33.332062 51.000076,33.164963 50.999847,32.997864 
z"/>
<path fill="#F5F9F9" opacity="1.000000" stroke="none" 
	d="
M150.998535,32.998169 
	C150.998459,22.644550 150.998383,12.290933 150.999146,1.468657 
	C151.444443,1.000000 151.888901,1.000000 152.666672,1.000000 
	C152.999771,11.353740 152.999527,21.707479 152.666473,32.530750 
	C151.888611,32.999577 151.443573,32.998875 150.998535,32.998169 
z"/>
<path fill="#F5F9F9" opacity="1.000000" stroke="none" 
	d="
M3.001838,32.528076 
	C2.558273,32.997528 2.113033,32.998699 1.333896,32.999931 
	C1.000000,23.166666 0.975846,13.333167 1.043366,3.500298 
	C1.049104,2.664715 1.666667,1.833333 2.500000,1.000000 
	C3.000054,11.353265 3.000108,21.706530 3.001838,32.528076 
z"/>
<path fill="#F9F9F9" opacity="1.000000" stroke="none" 
	d="
M3.000576,254.008881 
	C3.000404,263.693481 3.000232,273.378082 3.000030,283.531342 
	C0.598999,284.608765 1.002899,282.906372 1.002267,281.560547 
	C0.997945,272.352814 1.000000,263.145050 1.333640,253.468887 
	C2.112133,253.000519 2.556986,253.000565 3.000506,253.252670 
	C2.999640,253.672775 3.000108,253.840836 3.000576,254.008881 
z"/>
<path fill="#F0F3F3" opacity="1.000000" stroke="none" 
	d="
M102.250000,284.000000 
	C102.000084,274.311127 102.000168,264.622284 101.998672,254.464142 
	C102.330391,256.545746 102.903763,259.092133 102.951088,261.648285 
	C103.083214,268.784271 102.997490,275.924255 102.998878,283.531342 
	C103.000000,284.000000 102.500000,284.000000 102.250000,284.000000 
z"/>
<path fill="#F0F3F3" opacity="1.000000" stroke="none" 
	d="
M252.250000,284.000000 
	C252.000046,274.311096 252.000107,264.622223 251.998596,254.464050 
	C252.330612,256.545563 252.904495,259.091888 252.951874,261.647949 
	C253.084106,268.784027 252.998306,275.924164 252.999298,283.531342 
	C253.000000,284.000000 252.500000,284.000000 252.250000,284.000000 
z"/>
<path fill="#F0F3F3" opacity="1.000000" stroke="none" 
	d="
M202.704498,255.285156 
	C203.000824,264.347717 202.999649,273.705200 202.999237,283.531342 
	C203.000000,284.000000 202.500000,284.000000 202.250000,284.000000 
	C202.135666,274.526703 202.271332,265.053375 202.704498,255.285156 
z"/>
<path fill="#F0F3F3" opacity="1.000000" stroke="none" 
	d="
M253.996338,197.997940 
	C263.018463,197.999115 272.040558,198.000290 281.531342,198.000732 
	C282.000000,198.000000 282.000000,198.500000 282.000000,198.750000 
	C272.978027,198.999725 263.956085,198.999435 254.464447,198.749512 
	C253.995300,198.332581 253.995819,198.165253 253.996338,197.997940 
z"/>
<path fill="#F0F3F3" opacity="1.000000" stroke="none" 
	d="
M282.000000,88.750000 
	C273.063324,89.000000 264.126617,89.000000 255.189941,89.000000 
	C255.186478,88.666901 255.183029,88.333801 255.179565,88.000702 
	C263.807281,88.000702 272.434967,88.000702 281.531342,88.000351 
	C282.000000,88.000000 282.000000,88.500000 282.000000,88.750000 
z"/>
<path fill="#F0F3F3" opacity="1.000000" stroke="none" 
	d="
M282.000000,253.750000 
	C273.062958,254.000000 264.125885,254.000000 255.188843,254.000000 
	C255.185471,253.666672 255.182098,253.333328 255.178711,253.000000 
	C263.806702,253.000000 272.434692,253.000000 281.531342,253.000000 
	C282.000000,253.000000 282.000000,253.500000 282.000000,253.750000 
z"/>
<path fill="#F0F3F3" opacity="1.000000" stroke="none" 
	d="
M282.000000,143.750000 
	C272.978943,144.000259 263.957886,144.000504 254.468140,143.750366 
	C253.999466,143.333267 253.999496,143.166550 253.999512,142.999847 
	C263.020569,142.999649 272.041626,142.999451 281.531342,142.999634 
	C282.000000,143.000000 282.000000,143.500000 282.000000,143.750000 
z"/>
<path fill="#F0F3F3" opacity="1.000000" stroke="none" 
	d="
M282.000000,33.750000 
	C273.063446,34.000000 264.126923,34.000000 255.190384,34.000000 
	C255.187012,33.666843 255.183624,33.333683 255.180252,33.000526 
	C263.807739,33.000526 272.435211,33.000526 281.531342,33.000263 
	C282.000000,33.000000 282.000000,33.500000 282.000000,33.750000 
z"/>
<path fill="#F0F3F3" opacity="1.000000" stroke="none" 
	d="
M1.000000,143.250000 
	C1.445284,142.999817 1.890567,142.999619 3.138199,142.999008 
	C11.630806,142.997940 19.321062,142.997299 26.717310,143.295074 
	C18.616341,143.729614 10.809382,143.865723 3.002424,144.001831 
	C2.557549,144.001175 2.112674,144.000534 1.333899,143.999939 
	C1.000000,144.000000 1.000000,143.500000 1.000000,143.250000 
z"/>
<path fill="#F3F6F7" opacity="1.000000" stroke="none" 
	d="
M3.001839,253.000610 
	C2.556986,253.000565 2.112133,253.000519 1.333640,253.000229 
	C1.000000,250.629440 1.000000,248.258896 1.333103,245.444199 
	C2.110013,245.001068 2.553820,245.002060 2.997518,245.446854 
	C2.998361,248.260239 2.999314,250.629807 3.000139,252.999695 
	C3.000012,253.000000 3.001839,253.000610 3.001839,253.000610 
z"/>
<path fill="#FBFDFD" opacity="1.000000" stroke="none" 
	d="
M2.997627,245.003052 
	C2.553820,245.002060 2.110013,245.001068 1.333103,245.000031 
	C1.000000,243.611008 1.000000,242.222000 1.000000,240.416504 
	C1.443788,239.999878 1.887575,239.999756 2.665561,240.415298 
	C2.999049,242.221664 2.998338,243.612366 2.997627,245.003052 
z"/>
<path fill="#F0F3F3" opacity="1.000000" stroke="none" 
	d="
M282.000000,1.500000 
	C281.675446,1.901155 281.413361,1.714583 281.106873,1.220142 
	C281.333344,1.000000 281.666656,1.000000 282.000000,1.500000 
z"/>
<path fill="#FEFEFE" opacity="1.000000" stroke="none" 
	d="
M251.010132,89.001740 
	C251.329758,89.101669 251.588089,89.287010 251.893250,90.244354 
	C252.000839,108.287361 252.000336,125.643761 251.999908,143.000076 
	C252.000000,143.000000 252.002609,142.996658 251.602142,142.997208 
	C250.043854,142.533218 248.886002,142.068695 247.710403,141.193237 
	C247.636749,136.391876 248.756577,131.516724 243.143204,129.358383 
	C233.348663,125.592384 224.173325,129.374924 220.082397,138.815872 
	C219.997986,139.010696 219.634171,139.084442 219.285614,139.278900 
	C213.455368,126.281906 207.641556,113.321556 201.877167,100.022079 
	C201.951050,99.455811 201.975525,99.228653 202.291046,98.721489 
	C202.721695,95.626320 202.861282,92.811157 203.108414,89.778069 
	C203.414261,89.288292 203.673996,89.102081 204.464279,89.000793 
	C220.292343,89.000626 235.651230,89.001183 251.010132,89.001740 
z"/>
<path fill="#F0F3F3" opacity="1.000000" stroke="none" 
	d="
M150.530029,32.999016 
	C151.443573,32.998875 151.888611,32.999577 152.667435,32.999302 
	C169.355057,32.996632 185.708908,32.994946 202.531372,32.987259 
	C219.021072,32.987854 235.042145,32.994450 251.531616,33.000519 
	C252.000000,33.000000 251.999695,32.999813 251.999695,32.999817 
	C250.273056,33.332802 248.548309,33.942421 246.819458,33.954323 
	C234.662979,34.038010 222.505569,33.973351 210.348618,34.007370 
	C202.262192,34.029999 203.019913,33.124203 203.005585,41.100792 
	C202.978653,56.088890 202.998703,71.077072 202.749847,86.534714 
	C202.333420,87.003349 202.166397,87.002480 202.000488,86.532776 
	C202.001862,70.438072 201.861588,54.810101 202.095688,39.187740 
	C202.158585,34.990318 200.854065,33.891102 196.751282,33.912254 
	C165.832809,34.071701 134.913162,34.001347 103.996590,33.752083 
	C103.999390,33.334209 103.999496,33.167057 103.999603,32.999901 
	C119.353569,32.999889 134.707535,32.999878 150.530029,32.999016 
z"/>
<path fill="#FBFDFD" opacity="1.000000" stroke="none" 
	d="
M201.999359,87.001610 
	C202.166397,87.002480 202.333420,87.003349 202.751038,87.003555 
	C203.101776,87.324188 203.287704,87.584122 203.776733,88.141312 
	C203.994400,88.667137 203.994766,88.834335 203.995117,89.001526 
	C203.673996,89.102081 203.414261,89.288292 202.817474,90.058563 
	C202.279343,93.371819 202.139679,96.186653 202.000000,99.001495 
	C201.975525,99.228653 201.951050,99.455811 201.590240,99.834549 
	C197.484726,96.707184 193.715576,93.428238 189.961975,89.864502 
	C189.983826,89.389694 189.990112,89.199661 190.449783,89.006012 
	C194.269913,88.668015 197.636688,88.333649 201.221802,87.891251 
	C201.712448,87.584137 201.898849,87.323601 201.999359,87.001610 
z"/>
<path fill="#F0F3F3" opacity="1.000000" stroke="none" 
	d="
M251.999817,143.000153 
	C252.000336,125.643761 252.000839,108.287361 251.999924,90.461349 
	C252.331528,91.716347 252.945374,93.439606 252.953705,95.165794 
	C253.029099,110.797829 252.998611,126.430389 252.749695,142.531616 
	C252.333435,143.000351 252.166626,143.000259 251.999817,143.000153 
z"/>
<path fill="#F0F3F3" opacity="1.000000" stroke="none" 
	d="
M252.997375,48.019188 
	C252.997437,61.259026 252.997437,74.002533 252.997437,86.746040 
	C252.778122,86.746735 252.558792,86.747429 252.339478,86.748131 
	C252.339478,69.918442 252.339478,53.088749 252.339478,36.259060 
	C252.558762,36.245834 252.778046,36.232609 252.997330,36.219379 
	C252.997330,39.987206 252.997330,43.755032 252.997375,48.019188 
z"/>
<path fill="#F0F3F3" opacity="1.000000" stroke="none" 
	d="
M204.464279,89.000793 
	C203.994766,88.834335 203.994400,88.667137 203.994583,88.249115 
	C219.470184,88.134293 234.945251,88.270279 250.715225,88.704002 
	C235.651230,89.001183 220.292343,89.000626 204.464279,89.000793 
z"/>
<path fill="#F0F3F3" opacity="1.000000" stroke="none" 
	d="
M252.000305,33.000153 
	C252.000610,23.408955 252.000610,13.817604 252.000610,4.226254 
	C252.198944,4.225606 252.397293,4.224959 252.595627,4.224312 
	C252.595627,13.620800 252.595627,23.017288 252.297668,32.706795 
	C251.999695,32.999813 252.000000,33.000000 252.000305,33.000153 
z"/>
<path fill="#F0F3F3" opacity="1.000000" stroke="none" 
	d="
M203.000092,31.537868 
	C202.668518,29.627310 202.056015,27.247522 202.054367,24.867310 
	C202.049194,17.435858 202.274918,10.004247 202.707275,2.274340 
	C203.001831,11.673471 203.000244,21.370960 203.000092,31.537868 
z"/>
<path fill="#FDFEFE" opacity="1.000000" stroke="none" 
	d="
M251.999908,143.000076 
	C252.166626,143.000259 252.333435,143.000351 252.750793,143.000290 
	C253.001343,143.000122 253.500549,142.999969 253.750031,142.999908 
	C253.999496,143.166550 253.999466,143.333267 253.999451,143.750061 
	C253.999451,144.000153 253.513535,143.999985 253.012787,143.996933 
	C252.340439,143.994980 252.168808,143.996078 251.998596,143.998596 
	C252.000000,144.000000 252.002808,144.002823 252.004684,143.751266 
	C252.005234,143.332031 252.003922,143.164337 252.002609,142.996658 
	C252.002609,142.996658 252.000000,143.000000 251.999908,143.000076 
z"/>
<path fill="#FEFEFE" opacity="1.000000" stroke="none" 
	d="
M251.998779,252.006149 
	C251.998779,252.006149 252.000549,252.491470 251.533325,252.743286 
	C235.037308,252.995728 219.008545,252.996338 202.979767,252.996948 
	C202.542526,252.997894 202.105301,252.998871 200.869858,252.999756 
	C184.381714,252.996689 168.691772,252.993683 153.001175,252.523102 
	C153.003754,244.486633 153.006989,236.917709 153.470276,229.261993 
	C168.505127,229.175171 183.079910,229.175171 197.915375,229.175171 
	C197.915375,233.421722 197.870773,236.908890 197.925339,240.394516 
	C198.018250,246.328186 200.888763,249.239822 206.832001,249.308563 
	C213.326843,249.383682 219.823212,249.340012 226.318878,249.325699 
	C234.312515,249.308075 236.940445,246.639175 236.989548,238.460129 
	C237.070480,224.973755 237.127640,211.487228 237.494873,198.000656 
	C238.195007,198.000000 238.595078,197.999451 239.284210,198.294037 
	C243.383224,198.726334 247.193192,198.863464 251.221588,199.108368 
	C251.712524,199.415024 251.898972,199.675491 252.000549,200.466461 
	C252.000717,217.958969 251.999741,234.982559 251.998779,252.006149 
z"/>
<path fill="#FEFEFE" opacity="1.000000" stroke="none" 
	d="
M103.990875,252.998322 
	C103.670525,252.897873 103.411751,252.711807 103.106262,251.753387 
	C102.998985,244.375946 103.000008,237.685257 103.000526,230.722534 
	C102.999603,230.088593 102.999184,229.726669 103.459351,229.271805 
	C119.609924,229.235977 135.299911,229.293106 150.992584,229.794434 
	C150.996216,237.822647 150.997192,245.406647 150.529633,252.993820 
	C134.704361,252.997437 119.347618,252.997879 103.990875,252.998322 
z"/>
<path fill="#FFFFFF" opacity="1.000000" stroke="none" 
	d="
M102.998764,229.364761 
	C102.999184,229.726669 102.999603,230.088593 102.703110,231.016830 
	C102.270180,238.391006 102.134171,245.198868 101.998169,252.006714 
	C101.998169,252.006714 102.000237,252.490479 101.532944,252.742081 
	C90.249756,252.995590 79.432144,253.095367 68.619576,252.906738 
	C66.732224,252.873810 64.866051,251.626526 62.998207,250.755951 
	C63.009476,250.327408 63.022331,250.083527 63.458351,249.654297 
	C65.027832,249.421844 66.183586,249.343460 67.339920,249.333740 
	C75.637886,249.263947 78.092346,246.753906 78.112183,238.282654 
	C78.119019,235.363785 78.113266,232.444885 78.113266,229.364761 
	C86.857964,229.364761 94.928368,229.364761 102.998764,229.364761 
z"/>
<path fill="#F0F3F3" opacity="1.000000" stroke="none" 
	d="
M62.990097,250.940094 
	C64.866051,251.626526 66.732224,252.873810 68.619576,252.906738 
	C79.432144,253.095367 90.249756,252.995590 101.534653,252.983978 
	C102.004745,253.145767 102.005821,253.317276 102.005127,253.746063 
	C69.314827,254.003006 36.626286,254.002625 3.469160,254.005569 
	C3.000108,253.840836 2.999640,253.672775 3.000506,253.252670 
	C3.001839,253.000610 3.000012,253.000000 3.468766,253.000031 
	C19.624126,252.996170 35.310734,252.992264 51.435230,252.991898 
	C55.578777,252.310318 59.284435,251.625198 62.990097,250.940094 
z"/>
<path fill="#F0F3F3" opacity="1.000000" stroke="none" 
	d="
M104.285263,253.296387 
	C119.347618,252.997879 134.704361,252.997437 150.863586,252.996368 
	C152.111328,252.994049 152.556580,252.992355 153.001831,252.990677 
	C168.691772,252.993683 184.381714,252.996689 200.541672,252.998810 
	C199.786118,253.332001 198.561035,253.955704 197.334915,253.957794 
	C167.059830,254.009537 136.784637,253.997925 106.509476,253.976456 
	C105.866112,253.975998 105.222923,253.727310 104.285263,253.296387 
z"/>
<path fill="#F0F3F3" opacity="1.000000" stroke="none" 
	d="
M202.984085,253.254517 
	C219.008545,252.996338 235.037308,252.995728 251.535187,252.985947 
	C252.005188,253.147873 252.006119,253.318970 252.005249,253.746765 
	C235.980392,254.004456 219.957367,254.005478 203.465332,254.016846 
	C202.993698,253.855499 202.991043,253.683792 202.984085,253.254517 
z"/>
<path fill="#F0F3F3" opacity="1.000000" stroke="none" 
	d="
M102.248932,252.006897 
	C102.134171,245.198868 102.270180,238.391006 102.703613,231.288849 
	C103.000008,237.685257 102.998985,244.375946 102.999588,251.535706 
	C102.834045,252.005539 102.666870,252.006302 102.248932,252.006897 
z"/>
<path fill="#FDFEFE" opacity="1.000000" stroke="none" 
	d="
M238.995163,197.998901 
	C238.595078,197.999451 238.195007,198.000000 237.416168,197.537689 
	C237.352615,181.585831 237.380798,166.152573 228.540222,153.704147 
	C234.955322,150.340668 240.991608,147.175797 247.442352,144.006866 
	C249.238800,144.002823 250.620804,144.002823 252.002808,144.002823 
	C252.002808,144.002823 252.000000,144.000000 252.000366,144.467560 
	C252.001312,160.566956 251.970901,176.198944 252.046295,191.830414 
	C252.054626,193.556549 252.668213,195.279755 253.001099,197.004318 
	C253.101746,197.325562 253.288101,197.585312 253.778259,197.890747 
	C253.995819,198.165253 253.995300,198.332581 253.995575,198.750900 
	C253.674789,199.101959 253.414810,199.288040 252.858353,199.777618 
	C252.333313,199.995926 252.166351,199.996750 251.999390,199.997559 
	C251.898972,199.675491 251.712524,199.415024 250.932556,198.813461 
	C246.615082,198.273483 242.805130,198.136200 238.995163,197.998901 
z"/>
<path fill="#F0F3F3" opacity="1.000000" stroke="none" 
	d="
M252.000549,200.466461 
	C252.166351,199.996750 252.333313,199.995926 252.750763,199.995728 
	C252.999985,215.325714 253.012100,230.655121 252.979752,245.984436 
	C252.975937,247.795609 252.728271,249.606262 252.296204,251.711655 
	C251.999741,234.982559 252.000717,217.958969 252.000549,200.466461 
z"/>
<path fill="#F0F3F3" opacity="1.000000" stroke="none" 
	d="
M52.999084,34.000305 
	C52.999062,33.833122 52.999039,33.665939 52.999657,33.247948 
	C69.021095,32.998302 85.041893,32.999458 101.531670,33.255699 
	C102.001831,33.681038 102.003006,33.851292 101.535095,34.012955 
	C85.043709,34.003017 69.021400,34.001663 52.999084,34.000305 
z"/>
<path fill="#F0F3F3" opacity="1.000000" stroke="none" 
	d="
M102.703674,3.289935 
	C103.000275,12.684727 102.999565,22.373793 102.749573,32.531647 
	C102.333527,33.000290 102.166763,33.000145 102.000000,33.000000 
	C102.135452,23.194736 102.270905,13.389472 102.703674,3.289935 
z"/>
<path fill="#F0F3F3" opacity="1.000000" stroke="none" 
	d="
M252.999969,196.535217 
	C252.668213,195.279755 252.054626,193.556549 252.046295,191.830414 
	C251.970901,176.198944 252.001312,160.566956 251.998962,144.466156 
	C252.168808,143.996078 252.340439,143.994980 252.769836,143.995728 
	C253.018036,161.353745 253.008438,178.709915 252.999969,196.535217 
z"/>
<path fill="#FFFFFF" opacity="1.000000" stroke="none" 
	d="
M102.000328,33.255390 
	C102.166763,33.000145 102.333527,33.000290 102.750717,33.000317 
	C103.001144,33.000198 103.500473,33.000008 103.750038,32.999954 
	C103.999496,33.167057 103.999390,33.334209 103.778839,33.859013 
	C103.286842,34.414814 103.101120,34.674389 102.750534,34.994312 
	C102.332726,34.993465 102.165596,34.993679 101.999588,34.750809 
	C102.000710,34.507717 102.004173,34.021542 102.004173,34.021542 
	C102.003006,33.851292 102.001831,33.681038 102.000328,33.255390 
z"/>
<path fill="#F0F3F3" opacity="1.000000" stroke="none" 
	d="
M50.531204,32.998962 
	C51.000076,33.164963 51.000305,33.332062 50.531548,33.749176 
	C44.249794,33.999012 38.437019,33.997997 32.624245,33.998844 
	C22.749594,34.000278 12.874941,34.002892 3.000289,34.005009 
	C2.999958,33.837147 2.999627,33.669285 2.999800,33.249596 
	C18.687723,32.998539 34.375145,32.999302 50.531204,32.998962 
z"/>
<path fill="#FEFFFF" opacity="1.000000" stroke="none" 
	d="
M3.000499,144.470306 
	C10.809382,143.865723 18.616341,143.729614 27.114935,143.256149 
	C28.070934,142.885544 28.335297,142.852280 28.749908,143.102020 
	C33.001690,150.356857 41.143238,149.537766 47.209717,152.687805 
	C38.840401,173.014053 38.377304,174.919281 39.014381,186.417450 
	C38.992832,187.862778 39.036579,188.916809 39.000076,190.398132 
	C38.972855,192.559464 39.025883,194.293518 39.012581,196.397400 
	C38.863937,197.511642 38.781628,198.256027 38.536549,198.999023 
	C38.373779,198.997620 38.048386,198.987442 38.048386,198.987457 
	C36.482559,198.658096 34.919777,198.061890 33.350407,198.044006 
	C25.023251,197.949081 16.681684,197.723648 8.371221,198.107986 
	C3.761246,198.321213 2.841350,196.651199 2.904034,192.408371 
	C3.137765,176.588165 2.998116,160.762421 3.000499,144.470306 
z"/>
<path fill="#FFFFFF" opacity="1.000000" stroke="none" 
	d="
M37.574711,198.992401 
	C38.048386,198.987442 38.373779,198.997620 38.622269,199.460709 
	C38.940018,212.272400 39.009277,224.620987 38.998116,237.369751 
	C38.972279,238.852539 39.026871,239.935150 39.032669,241.258087 
	C38.983879,241.498398 39.099110,241.975113 39.056873,242.338043 
	C41.338657,245.059113 43.662678,247.417252 46.027451,249.930084 
	C46.382034,250.002350 46.695862,249.919937 47.377098,249.655609 
	C48.817066,249.562332 49.889629,249.650955 50.974915,250.062012 
	C50.990871,251.252426 50.994106,252.120392 50.997345,252.988358 
	C35.310734,252.992264 19.624126,252.996170 3.468894,252.999725 
	C2.999314,250.629807 2.998361,248.260239 2.997518,245.446854 
	C2.998338,243.612366 2.999049,242.221664 2.998641,240.413696 
	C2.997619,227.889435 3.134412,215.779999 2.916904,203.676910 
	C2.849124,199.905319 4.070635,198.839859 7.747488,198.924332 
	C17.527401,199.149002 27.315931,198.998596 37.574711,198.992401 
z"/>
<path fill="#FFFFFF" opacity="1.000000" stroke="none" 
	d="
M3.000178,34.473152 
	C12.874941,34.002892 22.749594,34.000278 32.624245,33.998844 
	C38.437019,33.997997 44.249794,33.999012 50.531208,33.999825 
	C50.999847,34.000458 50.999340,34.003506 50.999504,34.475639 
	C51.058743,46.086502 51.117817,57.225235 51.201515,68.675438 
	C50.500145,69.663734 49.774158,70.340569 48.659195,71.012238 
	C43.193554,71.844963 41.894218,73.409882 43.122711,77.412949 
	C42.313061,78.818169 41.593529,79.908630 40.503517,81.006058 
	C35.989204,81.700798 36.100090,84.908752 35.530922,87.994202 
	C24.374996,87.995735 13.687696,87.994537 3.000394,87.993332 
	C3.000285,70.309319 3.000176,52.625305 3.000178,34.473152 
z"/>
<path fill="#FEFEFE" opacity="1.000000" stroke="none" 
	d="
M28.599661,142.819031 
	C28.335297,142.852280 28.070934,142.885544 27.408945,142.957733 
	C19.321062,142.997299 11.630806,142.997940 3.472399,142.996552 
	C3.002878,125.310677 3.001506,107.626854 3.468846,89.472137 
	C13.239935,89.000710 22.542830,89.050468 31.844219,88.954453 
	C33.569439,88.936646 35.288593,88.331406 37.305672,87.998276 
	C37.994534,87.999741 38.388268,88.000214 38.824356,88.451706 
	C37.777058,106.808022 51.086643,113.930527 63.748577,122.034523 
	C61.339870,127.564774 58.873207,133.228088 56.237598,139.279282 
	C51.648529,130.481613 50.767754,129.774155 43.437180,128.648071 
	C30.987608,126.735641 27.211613,130.341995 28.599661,142.819031 
z"/>
<path fill="#F0F3F3" opacity="1.000000" stroke="none" 
	d="
M37.010548,87.997284 
	C35.288593,88.331406 33.569439,88.936646 31.844219,88.954453 
	C22.542830,89.050468 13.239935,89.000710 3.468944,89.003883 
	C2.999873,88.837685 2.999416,88.668846 2.999676,88.246674 
	C13.687696,87.994537 24.374996,87.995735 35.783669,87.997086 
	C36.673542,87.997253 36.842045,87.997269 37.010548,87.997284 
z"/>
<path fill="#FEFEFE" opacity="1.000000" stroke="none" 
	d="
M51.176891,68.363968 
	C51.117817,57.225235 51.058743,46.086502 50.999451,34.480652 
	C51.443657,34.010307 51.888081,34.007080 52.665794,34.002079 
	C69.021400,34.001663 85.043709,34.003017 101.535095,34.012955 
	C102.004173,34.021542 102.000710,34.507717 102.001129,35.219868 
	C101.994499,42.233597 101.987450,48.535172 101.526535,54.901894 
	C97.921089,55.137497 94.769508,55.308132 91.617920,55.478378 
	C77.020241,56.266914 63.968781,61.908089 51.176891,68.363968 
z"/>
<path fill="#43AAAB" opacity="1.000000" stroke="none" 
	d="
M51.201515,68.675438 
	C63.968781,61.908089 77.020241,56.266914 91.617920,55.478378 
	C94.769508,55.308132 97.921089,55.137497 101.785774,54.958248 
	C102.672180,54.914265 102.845490,54.879070 103.481979,54.910789 
	C120.573631,54.996220 137.202148,54.997437 153.830536,55.044498 
	C158.429108,55.057510 160.941437,57.431614 159.105331,60.212070 
	C158.107101,61.723705 155.410095,62.859871 153.464294,62.882656 
	C136.172836,63.085133 118.877556,63.078876 101.584366,62.974781 
	C88.942093,62.898682 76.732246,65.261978 65.231110,70.250549 
	C57.015839,73.813896 49.103664,78.359138 46.152412,88.224442 
	C46.071220,88.654327 46.090969,88.833435 46.028645,89.442642 
	C45.746910,99.996529 55.768089,111.035912 67.666428,113.546402 
	C72.035957,102.668304 78.795006,93.791924 90.373672,88.979340 
	C94.006470,88.272362 97.222786,87.071632 100.474571,86.966301 
	C119.371925,86.354263 138.275772,85.827827 157.181213,85.623535 
	C168.280365,85.503601 179.464737,85.476677 189.946411,90.149284 
	C193.715576,93.428238 197.484726,96.707184 201.540817,100.173668 
	C207.641556,113.321556 213.455368,126.281906 219.285614,139.278900 
	C219.634171,139.084442 219.997986,139.010696 220.082397,138.815872 
	C224.173325,129.374924 233.348663,125.592384 243.143204,129.358383 
	C248.756577,131.516724 247.636749,136.391876 247.494415,141.437439 
	C247.206757,142.732025 247.117340,143.371475 247.027924,144.010925 
	C240.991608,147.175797 234.955322,150.340668 228.540222,153.704147 
	C237.380798,166.152573 237.352615,181.585831 237.116119,197.537811 
	C237.127640,211.487228 237.070480,224.973755 236.989548,238.460129 
	C236.940445,246.639175 234.312515,249.308075 226.318878,249.325699 
	C219.823212,249.340012 213.326843,249.383682 206.832001,249.308563 
	C200.888763,249.239822 198.018250,246.328186 197.925339,240.394516 
	C197.870773,236.908890 197.915375,233.421722 197.915375,229.175171 
	C183.079910,229.175171 168.505127,229.175171 153.136841,229.179565 
	C151.892197,229.239395 151.441040,229.294815 150.989899,229.350250 
	C135.299911,229.293106 119.609924,229.235977 103.459351,229.271805 
	C94.928368,229.364761 86.857964,229.364761 78.113266,229.364761 
	C78.113266,232.444885 78.119019,235.363785 78.112183,238.282654 
	C78.092346,246.753906 75.637886,249.263947 67.339920,249.333740 
	C66.183586,249.343460 65.027832,249.421844 63.026451,249.456543 
	C58.441456,249.542969 54.701820,249.641281 50.962189,249.739594 
	C49.889629,249.650955 48.817066,249.562332 47.128674,249.507034 
	C46.337463,249.618698 46.162079,249.697037 45.986698,249.775375 
	C43.662678,247.417252 41.338657,245.059113 39.208832,242.248779 
	C39.295834,241.536972 39.188648,241.277374 39.081463,241.017761 
	C39.026871,239.935150 38.972279,238.852539 39.280724,237.068176 
	C39.747704,223.489685 39.862984,210.612976 39.917858,197.736008 
	C39.920277,197.167740 39.371136,196.597107 39.078911,196.027573 
	C39.025883,194.293518 38.972855,192.559464 39.247494,190.186371 
	C39.410000,188.373596 39.244843,187.199860 39.079681,186.026138 
	C38.377304,174.919281 38.840401,173.014053 47.209717,152.687805 
	C41.143238,149.537766 33.001690,150.356857 28.749908,143.102020 
	C27.211613,130.341995 30.987608,126.735641 43.437180,128.648071 
	C50.767754,129.774155 51.648529,130.481613 56.237598,139.279282 
	C58.873207,133.228088 61.339870,127.564774 63.748577,122.034523 
	C51.086643,113.930527 37.777058,106.808022 38.946747,88.098877 
	C39.642525,85.196381 40.258259,83.097740 40.873993,80.999092 
	C41.593529,79.908630 42.313061,78.818169 43.394947,77.242096 
	C45.520924,74.843460 47.284546,72.930428 49.048168,71.017395 
	C49.774158,70.340569 50.500145,69.663734 51.201515,68.675438 
M153.892273,142.998474 
	C168.607254,143.045486 183.322250,143.092484 198.363373,143.556305 
	C198.901642,143.334167 199.439896,143.112030 200.406723,142.334869 
	C201.165176,140.483109 202.845718,138.452927 202.527695,136.809464 
	C200.859756,128.189789 198.962631,119.590973 196.607864,111.134514 
	C194.367645,103.089508 188.732040,99.048996 180.392471,99.021957 
	C152.437790,98.931335 124.482597,98.899368 96.527901,98.967430 
	C87.529228,98.989334 79.060455,107.401863 78.330177,116.638771 
	C82.811661,117.954010 86.760933,119.097343 90.734352,114.426277 
	C94.095947,110.474480 100.765350,111.991104 104.315025,116.384537 
	C108.553986,121.631104 107.919693,129.189514 102.885292,133.421371 
	C98.840782,136.821152 91.862076,136.639618 89.200638,131.965118 
	C85.684273,125.789040 80.455048,126.158157 74.622925,125.929008 
	C73.959015,128.859329 73.571495,131.669495 72.664665,134.300674 
	C71.465363,137.780457 72.188560,140.466400 75.335037,143.287491 
	C76.542137,143.238754 77.749229,143.190018 79.889549,142.998505 
	C103.273636,143.046341 126.657722,143.094193 150.414032,143.591095 
	C151.262390,143.440460 152.110748,143.289825 153.892273,142.998474 
M174.119110,183.919266 
	C173.138794,177.824951 171.021271,175.959930 164.887482,175.953613 
	C146.736664,175.934891 128.585800,175.934448 110.434998,175.955002 
	C104.032227,175.962250 101.348969,178.581985 101.157982,184.931091 
	C101.102936,186.761169 101.138611,188.594360 101.150162,190.426010 
	C101.200775,198.456436 103.631226,200.934311 111.508026,200.939499 
	C126.994507,200.949692 142.481003,200.946732 157.967499,200.943848 
	C173.975555,200.940872 174.140961,200.773026 174.119110,183.919266 
M203.911621,167.233398 
	C196.881119,168.680557 192.435272,172.870193 190.505463,179.784042 
	C188.324509,187.597626 191.815872,196.474213 198.513626,200.033844 
	C204.695099,203.319107 212.233932,201.959564 216.553345,196.557327 
	C221.050705,190.932556 222.324188,184.593323 219.521255,177.845001 
	C216.817947,171.336594 212.032867,167.388687 203.911621,167.233398 
M83.853256,177.044769 
	C79.917587,169.538513 74.132965,166.196457 67.617859,167.664795 
	C57.001095,170.057541 51.805103,181.892532 56.665264,192.614838 
	C59.319023,198.469467 63.909489,201.769318 70.278252,201.793579 
	C76.514328,201.817352 81.584061,198.481689 83.346832,192.773972 
	C84.773590,188.154266 83.919678,182.830200 83.853256,177.044769 
z"/>
<path fill="#F0F3F3" opacity="1.000000" stroke="none" 
	d="
M202.291046,98.721489 
	C202.139679,96.186653 202.279343,93.371819 202.709961,90.276489 
	C202.861282,92.811157 202.721695,95.626320 202.291046,98.721489 
z"/>
<path fill="#F0F3F3" opacity="1.000000" stroke="none" 
	d="
M247.442352,144.006866 
	C247.117340,143.371475 247.206757,142.732025 247.512177,141.848358 
	C248.886002,142.068695 250.043854,142.533218 251.602142,142.997208 
	C252.003922,143.164337 252.005234,143.332031 252.004684,143.751266 
	C250.620804,144.002823 249.238800,144.002823 247.442352,144.006866 
z"/>
<path fill="#FEFEFE" opacity="1.000000" stroke="none" 
	d="
M189.961975,89.864502 
	C179.464737,85.476677 168.280365,85.503601 157.181213,85.623535 
	C138.275772,85.827827 119.371925,86.354263 100.474571,86.966301 
	C97.222786,87.071632 94.006470,88.272362 90.048859,88.980629 
	C88.890678,88.996696 88.457420,88.999207 87.726997,88.704491 
	C73.704346,88.262726 59.978848,88.118195 46.253353,87.973663 
	C49.103664,78.359138 57.015839,73.813896 65.231110,70.250549 
	C76.732246,65.261978 88.942093,62.898682 101.584366,62.974781 
	C118.877556,63.078876 136.172836,63.085133 153.464294,62.882656 
	C155.410095,62.859871 158.107101,61.723705 159.105331,60.212070 
	C160.941437,57.431614 158.429108,55.057510 153.830536,55.044498 
	C137.202148,54.997437 120.573631,54.996220 103.475525,54.453526 
	C103.004333,47.618031 103.002777,41.306702 103.001221,34.995377 
	C103.101120,34.674389 103.286842,34.414814 103.776138,34.109726 
	C134.913162,34.001347 165.832809,34.071701 196.751282,33.912254 
	C200.854065,33.891102 202.158585,34.990318 202.095688,39.187740 
	C201.861588,54.810101 202.001862,70.438072 202.000488,86.532776 
	C201.898849,87.323601 201.712448,87.584137 200.768341,87.892014 
	C196.729828,88.337082 193.363113,88.673355 189.996414,89.009628 
	C189.990112,89.199661 189.983826,89.389694 189.961975,89.864502 
z"/>
<path fill="#F0F3F3" opacity="1.000000" stroke="none" 
	d="
M190.449783,89.006012 
	C193.363113,88.673355 196.729828,88.337082 200.549988,88.000046 
	C197.636688,88.333649 194.269913,88.668015 190.449783,89.006012 
z"/>
<path fill="#FBFDFD" opacity="1.000000" stroke="none" 
	d="
M150.992584,229.794449 
	C151.441040,229.294815 151.892197,229.239395 152.676788,229.266388 
	C153.006989,236.917709 153.003754,244.486633 153.001175,252.523102 
	C152.556580,252.992355 152.111328,252.994049 151.332123,252.993195 
	C150.997192,245.406647 150.996216,237.822647 150.992584,229.794449 
z"/>
<path fill="#F0F3F3" opacity="1.000000" stroke="none" 
	d="
M239.284210,198.294037 
	C242.805130,198.136200 246.615082,198.273483 250.714096,198.705688 
	C247.193192,198.863464 243.383224,198.726334 239.284210,198.294037 
z"/>
<path fill="#FBFDFD" opacity="1.000000" stroke="none" 
	d="
M50.974915,250.062042 
	C54.701820,249.641281 58.441456,249.542969 62.612991,249.642410 
	C63.022331,250.083527 63.009476,250.327408 62.998207,250.755951 
	C59.284435,251.625198 55.578777,252.310318 51.435234,252.991898 
	C50.994106,252.120392 50.990871,251.252426 50.974915,250.062042 
z"/>
<path fill="#F0F3F3" opacity="1.000000" stroke="none" 
	d="
M102.750534,34.994312 
	C103.002777,41.306702 103.004333,47.618031 103.012344,54.386620 
	C102.845490,54.879070 102.672180,54.914265 102.239639,54.893105 
	C101.987450,48.535172 101.994499,42.233597 102.000015,35.462959 
	C102.165596,34.993679 102.332726,34.993465 102.750534,34.994312 
z"/>
<path fill="#379FA1" opacity="1.000000" stroke="none" 
	d="
M39.012581,196.397400 
	C39.371136,196.597107 39.920277,197.167740 39.917858,197.736008 
	C39.862984,210.612976 39.747704,223.489685 39.361149,236.668015 
	C39.009277,224.620987 38.940018,212.272400 38.785038,199.462112 
	C38.781628,198.256027 38.863937,197.511642 39.012581,196.397400 
z"/>
<path fill="#379FA1" opacity="1.000000" stroke="none" 
	d="
M39.014381,186.417450 
	C39.244843,187.199860 39.410000,188.373596 39.327744,189.759079 
	C39.036579,188.916809 38.992832,187.862778 39.014381,186.417450 
z"/>
<path fill="#FBFDFD" opacity="1.000000" stroke="none" 
	d="
M46.027451,249.930084 
	C46.162079,249.697037 46.337463,249.618698 46.761269,249.688934 
	C46.695862,249.919937 46.382034,250.002350 46.027451,249.930084 
z"/>
<path fill="#379FA1" opacity="1.000000" stroke="none" 
	d="
M39.032669,241.258087 
	C39.188648,241.277374 39.295834,241.536972 39.251068,241.885849 
	C39.099110,241.975113 38.983879,241.498398 39.032669,241.258087 
z"/>
<path fill="#FEFEFE" opacity="1.000000" stroke="none" 
	d="
M40.503517,81.006058 
	C40.258259,83.097740 39.642525,85.196381 38.904396,87.647858 
	C38.388268,88.000214 37.994534,87.999741 37.305672,87.998276 
	C36.842045,87.997269 36.673542,87.997253 36.252289,87.994347 
	C36.100090,84.908752 35.989204,81.700798 40.503517,81.006058 
z"/>
<path fill="#FEFEFE" opacity="1.000000" stroke="none" 
	d="
M48.659195,71.012238 
	C47.284546,72.930428 45.520924,74.843460 43.485069,76.927345 
	C41.894218,73.409882 43.193554,71.844963 48.659195,71.012238 
z"/>
<path fill="#FDFEFE" opacity="1.000000" stroke="none" 
	d="
M198.037231,143.139496 
	C183.322250,143.092484 168.607254,143.045486 153.063385,143.009644 
	C151.503601,143.061218 150.772705,143.101624 150.041809,143.142029 
	C126.657722,143.094193 103.273636,143.046341 79.034279,143.011444 
	C77.139992,142.902283 76.100983,142.780197 75.061966,142.658112 
	C72.188560,140.466400 71.465363,137.780457 72.664665,134.300674 
	C73.571495,131.669495 73.959015,128.859329 74.622925,125.929008 
	C80.455048,126.158157 85.684273,125.789040 89.200638,131.965118 
	C91.862076,136.639618 98.840782,136.821152 102.885292,133.421371 
	C107.919693,129.189514 108.553986,121.631104 104.315025,116.384537 
	C100.765350,111.991104 94.095947,110.474480 90.734352,114.426277 
	C86.760933,119.097343 82.811661,117.954010 78.330154,116.638672 
	C79.060455,107.401863 87.529228,98.989334 96.527901,98.967430 
	C124.482597,98.899368 152.437790,98.931335 180.392471,99.021957 
	C188.732040,99.048996 194.367645,103.089508 196.607864,111.134514 
	C198.962631,119.590973 200.859756,128.189789 202.527695,136.809464 
	C202.845718,138.452927 201.165176,140.483109 199.865479,142.622681 
	C198.895218,142.986816 198.466232,143.063156 198.037231,143.139496 
z"/>
<path fill="#FDFEFE" opacity="1.000000" stroke="none" 
	d="
M174.122589,184.368774 
	C174.140961,200.773026 173.975555,200.940872 157.967499,200.943848 
	C142.481003,200.946732 126.994507,200.949692 111.508026,200.939499 
	C103.631226,200.934311 101.200775,198.456436 101.150162,190.426010 
	C101.138611,188.594360 101.102936,186.761169 101.157982,184.931091 
	C101.348969,178.581985 104.032227,175.962250 110.434998,175.955002 
	C128.585800,175.934448 146.736664,175.934891 164.887482,175.953613 
	C171.021271,175.959930 173.138794,177.824951 174.122589,184.368774 
z"/>
<path fill="#FCFEFE" opacity="1.000000" stroke="none" 
	d="
M204.306274,167.176666 
	C212.032867,167.388687 216.817947,171.336594 219.521255,177.845001 
	C222.324188,184.593323 221.050705,190.932556 216.553345,196.557327 
	C212.233932,201.959564 204.695099,203.319107 198.513626,200.033844 
	C191.815872,196.474213 188.324509,187.597626 190.505463,179.784042 
	C192.435272,172.870193 196.881119,168.680557 204.306274,167.176666 
z"/>
<path fill="#FCFEFE" opacity="1.000000" stroke="none" 
	d="
M83.965332,177.431671 
	C83.919678,182.830200 84.773590,188.154266 83.346832,192.773972 
	C81.584061,198.481689 76.514328,201.817352 70.278252,201.793579 
	C63.909489,201.769318 59.319023,198.469467 56.665264,192.614838 
	C51.805103,181.892532 57.001095,170.057541 67.617859,167.664795 
	C74.132965,166.196457 79.917587,169.538513 83.965332,177.431671 
z"/>
<path fill="#FCFEFE" opacity="1.000000" stroke="none" 
	d="
M88.024155,89.001724 
	C88.457420,88.999207 88.890678,88.996696 89.648758,88.992889 
	C78.795006,93.791924 72.035957,102.668304 67.666428,113.546402 
	C55.768089,111.035912 45.746910,99.996529 46.489250,89.437668 
	C60.696003,89.002304 74.360077,89.002014 88.024155,89.001724 
z"/>
<path fill="#F0F3F3" opacity="1.000000" stroke="none" 
	d="
M87.726997,88.704491 
	C74.360077,89.002014 60.696003,89.002304 46.571327,89.007568 
	C46.090969,88.833435 46.071220,88.654327 46.152412,88.224442 
	C59.978848,88.118195 73.704346,88.262726 87.726997,88.704491 
z"/>
<path fill="#379FA1" opacity="1.000000" stroke="none" 
	d="
M75.198502,142.972809 
	C76.100983,142.780197 77.139992,142.902283 78.567673,143.082825 
	C77.749229,143.190018 76.542137,143.238754 75.198502,142.972809 
z"/>
<path fill="#379FA1" opacity="1.000000" stroke="none" 
	d="
M150.227921,143.366577 
	C150.772705,143.101624 151.503601,143.061218 152.596802,143.079987 
	C152.110748,143.289825 151.262390,143.440460 150.227921,143.366577 
z"/>
<path fill="#379FA1" opacity="1.000000" stroke="none" 
	d="
M198.200302,143.347900 
	C198.466232,143.063156 198.895218,142.986816 199.651184,142.900192 
	C199.439896,143.112030 198.901642,143.334167 198.200302,143.347900 
z"/>
</svg>