<?xml version="1.0" encoding="utf-8"?>
<!-- Svg Vector Icons : http://www.onlinewebfonts.com/icon -->
<!DOCTYPE svg PUBLIC "-//W3C//DTD SVG 1.1//EN" "http://www.w3.org/Graphics/SVG/1.1/DTD/svg11.dtd">
<svg version="1.1" xmlns="http://www.w3.org/2000/svg" xmlns:xlink="http://www.w3.org/1999/xlink" x="0px" y="0px" viewBox="0 0 256 256" enable-background="new 0 0 256 256" xml:space="preserve">
<metadata> Svg Vector Icons : http://www.onlinewebfonts.com/icon </metadata>
<g><g><path fill="#41A9AB" d="M228.8,39.5H27.2c-9.5,0-17.2,7.7-17.2,17.2v142.5c0,9.5,7.7,17.2,17.2,17.2h201.6c9.5,0,17.2-7.7,17.2-17.2V56.7C246,47.2,238.3,39.5,228.8,39.5z M231.7,51.3c1.3,0,2.5,1.1,2.5,2.5v61.1L217.7,101l13.9-9.7l-14.2-12.6l-1.6-18.9l-18,6l-17.1-8l-1.6,8l-18.7-14.4H231.7L231.7,51.3z M183.9,80.9l2.5-11.9l11.1,5.2l11.6-3.9l1,12.1l9.1,8.1l-10,7l-2.5,11.9l-11.1-5.2l-11.6,3.8l-1-12.1l-9.1-8.1L183.9,80.9z M231.7,204.7H24.3c-1.3,0-2.5-1.1-2.5-2.5V53.8c0-1.3,1.1-2.5,2.5-2.5h117l33.9,26.2l-13.8,9.6l14.1,12.6l1.6,18.9l18-6l17.1,8l1.6-7.6l20.3,17.2v72C234.2,203.6,233.1,204.7,231.7,204.7z"/><path fill="#F45A59" d="M183.9,80.9l2.5-11.9l11.1,5.2l11.6-3.9l1,12.1l9.1,8.1l-10,7l-2.5,11.9l-11.1-5.2l-11.6,3.8l-1-12.1l-9.1-8.1L183.9,80.9z"/><path fill="#41A9AB" d="M45.4,122.1h100.3v5.9H45.4V122.1L45.4,122.1z"/><path fill="#41A9AB" d="M45.4,145.7h118v11.8h-118V145.7z"/><path fill="#41A9AB" d="M45.4,169.3h118v11.8h-118V169.3z"/></g></g>
</svg>